<svg xmlns="http://www.w3.org/2000/svg" xmlns:xlink="http://www.w3.org/1999/xlink" id="Layer_1" x="0px" y="0px" viewBox="0 0 1905.8 1209.9" style="enable-background:new 0 0 1905.8 1209.9;" xml:space="preserve"><style type="text/css">	.st0{clip-path:url(#SVGID_00000061443537729085677220000000896209638075520163_);}	.st1{fill:#00AEEF;}	.st2{fill:#FFFFFF;}	.st3{enable-background:new    ;}</style><g>	<defs>		<rect id="SVGID_1_" x="14.4" y="7.5" width="1877.1" height="1194.9"></rect>	</defs>	<clipPath id="SVGID_00000170249701268314500220000009302490218276533655_">		<use xlink:href="#SVGID_1_" style="overflow:visible;"></use>	</clipPath>	<g style="clip-path:url(#SVGID_00000170249701268314500220000009302490218276533655_);">		<path class="st1" d="M1195.6,534c0,38.6-30.4,69.9-67.9,69.9s-68-31.4-68-69.9s30.3-70,68-70S1195.6,495.4,1195.6,534"></path>		<path class="st2" d="M861.9,366.5c1.8-10.2,2.6-20.5,2.5-30.8c0-42.8-13.7-77.6-41.3-104.3c-27.3-26.8-62.6-40.1-105.3-40.1H294   c-27.1-0.1-53.9,5.8-78.5,17.1c-15.2,5.7-29.8,13.1-43.3,22.2c-41,29.4-66.5,71.4-76.3,126.1L14.4,819.5l0,0c1,0,1.9-0.1,2.9-0.1   c55.4-0.5,103.1-14.5,143.2-42.2c40.7-28.2,65.9-69.7,75.8-124.3l24.4-138.5c2.1-9.1,3.7-18.4,4.9-27.7l0.6-3.5   c11.6-64.7,31.7-98.2,70.5-98.2l38.1-0.1h0.5l-76.5,434.6c56.7,0,105.4-14.1,146.1-42.3s66-69.6,75.8-124.3L567.8,385h51.8   c27.2,0,38.4,14,33.5,42.1l-38.8,217.1c-1.7,9.8-2.5,19.8-2.4,29.8c0,48.9,16.4,85.8,49.3,110.7c29.5,23.1,69.3,34.7,119.4,34.8   L861.9,366.5z M1472.2,191.2h-381.4c-47.6,0-90.3,15.9-128.1,47.6s-60.8,71-69,117.9l-81.3,462.9c61.5,0,108.8-12.9,141.6-38.5   c29.6-23.2,66.3-58.3,78.9-124.1c1.9-10.5,6.3-33,11.8-60.3c-30.9-46.7-18.6-109.6,27.7-141.2c5.8-29.7,9.8-51,9.8-52.7   c0-11.7,7.4-17.6,22.2-17.6h170.6c27.1,0,46.9-2.1,59.1-6.2c18.9-5.7,41.1-19.7,66.6-41.9C1437.7,304.7,1461.5,256.2,1472.2,191.2    M1681,191.2c-58.3,0-106.7,13.1-145.4,39.2c-41,29.4-66.5,71.4-76.4,126.1l-81.5,462.9c56.7,0,105.4-14.1,146.1-42.3   c40.7-28.2,66-69.6,75.9-124.3L1681,191.2z"></path>		<path class="st2" d="M1799.8,144.5c-24.9,0.1-45.1-20.1-45.2-45c-0.1-24.9,20.1-45.1,45-45.2s45.1,20.1,45.2,45c0,0,0,0,0,0.1   C1844.8,124.2,1824.7,144.4,1799.8,144.5 M1799.8,7.5c-50.6,0-91.7,41.2-91.7,91.9c0,50.6,41,91.7,91.6,91.7s91.7-41,91.7-91.6   c0,0,0-0.1,0-0.1C1891.5,48.7,1850.4,7.5,1799.8,7.5"></path>		<g class="st3">			<path class="st2" d="M90.1,1008.4c9.5,0,17.6,1.4,24.3,4.2c6.7,2.8,12.1,6.4,16.3,11c4.2,4.6,7.3,9.7,9.2,15.6    c1.9,5.8,2.9,11.9,2.9,18.1c0,6.1-1,12.1-2.9,18c-1.9,5.9-5,11.1-9.2,15.7c-4.2,4.6-9.6,8.2-16.3,11c-6.7,2.8-14.8,4.2-24.3,4.2    H54.9v54.6H21.4v-152.3H90.1z M80.9,1080.1c3.8,0,7.5-0.3,11.1-0.9c3.6-0.6,6.7-1.7,9.4-3.3c2.7-1.6,4.9-3.9,6.5-6.9    c1.6-3,2.5-6.9,2.5-11.7c0-4.8-0.8-8.7-2.5-11.7c-1.6-3-3.8-5.3-6.5-6.9c-2.7-1.6-5.8-2.7-9.4-3.3c-3.6-0.6-7.3-0.9-11.1-0.9h-26    v45.6H80.9z"></path>			<path class="st2" d="M235.1,1160.7v-15.4h-0.6c-3.8,6.4-8.8,11-14.9,13.9c-6.1,2.8-12.4,4.3-18.8,4.3c-8.1,0-14.8-1.1-19.9-3.2    c-5.2-2.1-9.3-5.2-12.3-9.1c-3-3.9-5.1-8.7-6.3-14.3c-1.2-5.6-1.8-11.8-1.8-18.7v-67.8h30.3v62.3c0,9.1,1.4,15.9,4.3,20.4    c2.8,4.5,7.9,6.7,15.1,6.7c8.2,0,14.2-2.5,17.9-7.4c3.7-4.9,5.5-13,5.5-24.2v-57.8h30.3v110.3H235.1z"></path>			<path class="st2" d="M315.7,1050.4v20.5h0.4c1.4-3.4,3.3-6.6,5.8-9.5c2.4-2.9,5.2-5.4,8.3-7.5c3.1-2.1,6.5-3.7,10-4.8    c3.6-1.1,7.3-1.7,11.1-1.7c2,0,4.2,0.4,6.6,1.1v28.2c-1.4-0.3-3.1-0.5-5.1-0.7c-2-0.2-3.9-0.3-5.8-0.3c-5.5,0-10.2,0.9-14.1,2.8    c-3.8,1.8-6.9,4.4-9.3,7.6s-4,6.9-5,11.2c-1,4.3-1.5,8.9-1.5,13.9v49.7h-30.3v-110.3H315.7z"></path>			<path class="st2" d="M395.4,1133.3c1.3,2.3,3.1,4.3,5.2,5.8c2.1,1.5,4.6,2.6,7.4,3.3c2.8,0.7,5.7,1.1,8.6,1.1    c2.1,0,4.4-0.2,6.7-0.7c2.3-0.5,4.5-1.3,6.4-2.3c1.9-1.1,3.5-2.5,4.8-4.3c1.3-1.8,1.9-4,1.9-6.7c0-4.5-3-8-9.1-10.2    c-6-2.3-14.5-4.5-25.3-6.8c-4.4-1-8.7-2.2-12.9-3.5c-4.2-1.3-7.9-3.1-11.2-5.3c-3.3-2.2-5.9-5-7.9-8.3c-2-3.3-3-7.4-3-12.3    c0-7.1,1.4-12.9,4.2-17.5c2.8-4.5,6.4-8.1,11-10.8c4.5-2.6,9.7-4.5,15.4-5.5c5.7-1.1,11.5-1.6,17.5-1.6c6,0,11.8,0.6,17.4,1.7    c5.6,1.1,10.6,3.1,15,5.8c4.4,2.7,8.1,6.3,11,10.8c2.9,4.5,4.7,10.1,5.2,17h-28.8c-0.4-5.8-2.6-9.8-6.6-11.8    c-4-2.1-8.7-3.1-14.1-3.1c-1.7,0-3.6,0.1-5.5,0.3c-2,0.2-3.8,0.7-5.4,1.4c-1.6,0.7-3,1.7-4.2,3.1c-1.1,1.4-1.7,3.2-1.7,5.4    c0,2.7,1,4.9,3,6.6c2,1.7,4.6,3.1,7.8,4.2s6.9,2,11,2.9c4.1,0.9,8.3,1.8,12.6,2.8c4.4,1,8.7,2.2,12.9,3.6    c4.2,1.4,7.9,3.3,11.2,5.7c3.3,2.3,5.9,5.3,7.9,8.7c2,3.5,3,7.8,3,12.9c0,7.3-1.5,13.3-4.4,18.2c-2.9,4.9-6.7,8.9-11.4,11.8    s-10.1,5.1-16.1,6.3c-6,1.2-12.2,1.8-18.4,1.8c-6.4,0-12.7-0.6-18.8-1.9c-6.1-1.3-11.6-3.4-16.3-6.4c-4.8-3-8.7-6.9-11.7-11.8    c-3.1-4.9-4.7-11.1-5-18.5h28.8C393.4,1128.1,394,1130.9,395.4,1133.3z"></path>			<path class="st2" d="M559.1,1160.7v-15.4h-0.6c-3.8,6.4-8.8,11-14.9,13.9c-6.1,2.8-12.4,4.3-18.8,4.3c-8.1,0-14.8-1.1-19.9-3.2    c-5.2-2.1-9.3-5.2-12.3-9.1c-3-3.9-5.1-8.7-6.3-14.3c-1.2-5.6-1.8-11.8-1.8-18.7v-67.8h30.3v62.3c0,9.1,1.4,15.9,4.3,20.4    c2.8,4.5,7.9,6.7,15.1,6.7c8.2,0,14.2-2.5,17.9-7.4c3.7-4.9,5.5-13,5.5-24.2v-57.8h30.3v110.3H559.1z"></path>			<path class="st2" d="M611.8,1033.4v-25H642v25H611.8z M642,1050.4v110.3h-30.3v-110.3H642z"></path>			<path class="st2" d="M694.7,1050.4v15.4h0.6c3.8-6.4,8.8-11.1,14.9-14c6.1-2.9,12.4-4.4,18.8-4.4c8.1,0,14.8,1.1,19.9,3.3    c5.2,2.2,9.3,5.3,12.3,9.2c3,3.9,5.1,8.7,6.3,14.3c1.2,5.6,1.8,11.8,1.8,18.7v67.8h-30.3v-62.3c0-9.1-1.4-15.9-4.3-20.4    c-2.8-4.5-7.9-6.7-15.1-6.7c-8.2,0-14.2,2.5-17.9,7.4c-3.7,4.9-5.5,13-5.5,24.2v57.8h-30.3v-110.3H694.7z"></path>			<path class="st2" d="M896.6,1168.8c-1.2,5.7-3.8,11-7.8,15.9c-4,4.9-9.7,9.1-17.3,12.5c-7.5,3.4-17.6,5.1-30.3,5.1    c-5.4,0-10.9-0.7-16.5-2c-5.6-1.4-10.7-3.4-15.4-6.3c-4.6-2.8-8.5-6.5-11.5-11c-3.1-4.5-4.8-9.8-5.2-16.1h30.1    c1.4,5.7,4.2,9.6,8.3,11.8c4.1,2.2,8.9,3.3,14.3,3.3c8.5,0,14.8-2.6,18.7-7.7c3.9-5.1,5.8-11.6,5.7-19.4v-14.5h-0.4    c-3.3,5.8-7.9,10.1-14,12.9c-6,2.8-12.4,4.2-19.1,4.2c-8.2,0-15.4-1.5-21.3-4.4c-6-2.9-10.9-6.9-14.7-11.9    c-3.8-5-6.6-10.9-8.4-17.7c-1.8-6.8-2.7-13.9-2.7-21.4c0-7.1,1-14,3.1-20.6c2.1-6.6,5.1-12.4,9.1-17.5c4-5,8.9-9.1,14.8-12.1    c5.9-3,12.7-4.5,20.4-4.5c7.3,0,13.6,1.4,19.1,4.1c5.5,2.7,10.1,7.3,13.8,13.7h0.4v-14.7h28.8v103.2    C898.4,1158.1,897.8,1163.1,896.6,1168.8z M855.1,1132.1c3.3-1.7,6-4,8.1-6.8c2.1-2.8,3.7-6.1,4.8-9.7c1.1-3.6,1.6-7.4,1.6-11.4    c0-4.5-0.4-8.9-1.3-12.9c-0.9-4.1-2.3-7.6-4.3-10.8c-2-3.1-4.6-5.6-7.9-7.5c-3.3-1.8-7.4-2.8-12.4-2.8c-4.3,0-7.9,0.9-11,2.6    c-3.1,1.7-5.6,4-7.7,6.9c-2.1,2.9-3.6,6.3-4.5,10c-0.9,3.8-1.4,7.7-1.4,11.8c0,4,0.4,7.9,1.2,11.8c0.8,3.9,2.1,7.4,4.1,10.6    c1.9,3.1,4.4,5.7,7.6,7.7c3.1,2,7,3,11.7,3C848.1,1134.7,851.8,1133.8,855.1,1132.1z"></path>			<path class="st2" d="M1053.9,1008.4c9.5,0,17.6,1.4,24.3,4.2c6.7,2.8,12.1,6.4,16.3,11c4.2,4.6,7.3,9.7,9.2,15.6    c1.9,5.8,2.9,11.9,2.9,18.1c0,6.1-1,12.1-2.9,18c-1.9,5.9-5,11.1-9.2,15.7c-4.2,4.6-9.6,8.2-16.3,11c-6.7,2.8-14.8,4.2-24.3,4.2    h-35.2v54.6h-33.5v-152.3H1053.9z M1044.7,1080.1c3.8,0,7.5-0.3,11.1-0.9c3.6-0.6,6.7-1.7,9.4-3.3c2.7-1.6,4.9-3.9,6.5-6.9    c1.6-3,2.5-6.9,2.5-11.7c0-4.8-0.8-8.7-2.5-11.7c-1.6-3-3.8-5.3-6.5-6.9c-2.7-1.6-5.8-2.7-9.4-3.3c-3.6-0.6-7.3-0.9-11.1-0.9h-26    v45.6H1044.7z"></path>			<path class="st2" d="M1153.1,1050.4v20.5h0.4c1.4-3.4,3.3-6.6,5.8-9.5c2.4-2.9,5.2-5.4,8.3-7.5c3.1-2.1,6.5-3.7,10-4.8    c3.6-1.1,7.3-1.7,11.1-1.7c2,0,4.2,0.4,6.6,1.1v28.2c-1.4-0.3-3.1-0.5-5.1-0.7c-2-0.2-3.9-0.3-5.8-0.3c-5.5,0-10.2,0.9-14.1,2.8    c-3.8,1.8-6.9,4.4-9.3,7.6c-2.3,3.2-4,6.9-5,11.2c-1,4.3-1.5,8.9-1.5,13.9v49.7h-30.3v-110.3H1153.1z"></path>		</g>		<g class="st3">			<path class="st2" d="M1204.3,1081.7c2.7-7.2,6.5-13.3,11.5-18.3c5-5,10.9-9,17.9-11.7c7-2.8,14.8-4.2,23.5-4.2    c8.7,0,16.5,1.4,23.6,4.2c7,2.8,13,6.7,18,11.7c5,5,8.8,11.2,11.5,18.3c2.7,7.2,4.1,15.2,4.1,24c0,8.8-1.4,16.8-4.1,23.9    c-2.7,7.1-6.5,13.2-11.5,18.2c-5,5-11,8.9-18,11.6c-7,2.7-14.9,4.1-23.6,4.1c-8.7,0-16.5-1.4-23.5-4.1c-7-2.7-12.9-6.6-17.9-11.6    c-5-5-8.8-11.1-11.5-18.2c-2.7-7.1-4.1-15.1-4.1-23.9C1200.2,1096.8,1201.6,1088.8,1204.3,1081.7z M1231.8,1118.6    c0.9,4.2,2.3,8,4.4,11.3c2.1,3.3,4.8,6,8.2,8c3.4,2,7.7,3,12.8,3s9.4-1,12.9-3c3.5-2,6.3-4.7,8.3-8c2.1-3.3,3.5-7.1,4.4-11.3    c0.9-4.2,1.3-8.5,1.3-12.9c0-4.4-0.4-8.7-1.3-13c-0.9-4.3-2.3-8-4.4-11.3c-2.1-3.3-4.8-5.9-8.3-8c-3.5-2.1-7.8-3.1-12.9-3.1    s-9.4,1-12.8,3.1c-3.4,2.1-6.2,4.7-8.2,8c-2.1,3.3-3.5,7-4.4,11.3c-0.9,4.3-1.3,8.6-1.3,13    C1230.5,1110.1,1230.9,1114.4,1231.8,1118.6z"></path>			<path class="st2" d="M1438.1,1168.8c-1.2,5.7-3.8,11-7.8,15.9c-4,4.9-9.7,9.1-17.3,12.5c-7.5,3.4-17.6,5.1-30.3,5.1    c-5.4,0-10.9-0.7-16.5-2c-5.6-1.4-10.7-3.4-15.4-6.3c-4.6-2.8-8.5-6.5-11.5-11c-3.1-4.5-4.8-9.8-5.2-16.1h30.1    c1.4,5.7,4.2,9.6,8.3,11.8c4.1,2.2,8.9,3.3,14.3,3.3c8.5,0,14.8-2.6,18.7-7.7c3.9-5.1,5.8-11.6,5.7-19.4v-14.5h-0.4    c-3.3,5.8-7.9,10.1-14,12.9c-6,2.8-12.4,4.2-19.1,4.2c-8.2,0-15.4-1.5-21.3-4.4c-6-2.9-10.9-6.9-14.7-11.9    c-3.8-5-6.6-10.9-8.4-17.7c-1.8-6.8-2.7-13.9-2.7-21.4c0-7.1,1-14,3.1-20.6c2.1-6.6,5.1-12.4,9.1-17.5c4-5,8.9-9.1,14.8-12.1    c5.9-3,12.7-4.5,20.4-4.5c7.3,0,13.6,1.4,19.1,4.1c5.5,2.7,10.1,7.3,13.8,13.7h0.4v-14.7h28.8v103.2    C1440,1158.1,1439.3,1163.1,1438.1,1168.8z M1396.7,1132.1c3.3-1.7,6-4,8.1-6.8c2.1-2.8,3.7-6.1,4.8-9.7    c1.1-3.6,1.6-7.4,1.6-11.4c0-4.5-0.4-8.9-1.3-12.9s-2.3-7.6-4.3-10.8c-2-3.1-4.6-5.6-7.9-7.5c-3.3-1.8-7.4-2.8-12.4-2.8    c-4.3,0-7.9,0.9-11,2.6c-3.1,1.7-5.6,4-7.7,6.9c-2.1,2.9-3.6,6.3-4.5,10c-0.9,3.8-1.4,7.7-1.4,11.8c0,4,0.4,7.9,1.2,11.8    c0.8,3.9,2.1,7.4,4.1,10.6c1.9,3.1,4.4,5.7,7.6,7.7c3.1,2,7,3,11.7,3C1389.6,1134.7,1393.4,1133.8,1396.7,1132.1z"></path>			<path class="st2" d="M1493.1,1050.4v20.5h0.4c1.4-3.4,3.3-6.6,5.8-9.5c2.4-2.9,5.2-5.4,8.3-7.5c3.1-2.1,6.5-3.7,10-4.8    c3.6-1.1,7.3-1.7,11.1-1.7c2,0,4.2,0.4,6.6,1.1v28.2c-1.4-0.3-3.1-0.5-5.1-0.7c-2-0.2-3.9-0.3-5.8-0.3c-5.5,0-10.2,0.9-14.1,2.8    c-3.8,1.8-6.9,4.4-9.3,7.6c-2.3,3.2-4,6.9-5,11.2c-1,4.3-1.5,8.9-1.5,13.9v49.7h-30.3v-110.3H1493.1z"></path>		</g>		<g class="st3">			<path class="st2" d="M1576,1134.2c4.5,4.4,11.1,6.6,19.6,6.6c6.1,0,11.4-1.5,15.8-4.6c4.4-3.1,7.1-6.3,8.1-9.7h26.7    c-4.3,13.2-10.8,22.7-19.6,28.4c-8.8,5.7-19.5,8.5-32,8.5c-8.7,0-16.5-1.4-23.5-4.2c-7-2.8-12.9-6.7-17.7-11.8    c-4.8-5.1-8.6-11.2-11.2-18.3c-2.6-7.1-3.9-14.9-3.9-23.5c0-8.2,1.3-15.9,4.1-23c2.7-7.1,6.5-13.3,11.5-18.4    c5-5.2,10.9-9.3,17.8-12.3c6.9-3,14.5-4.5,22.9-4.5c9.4,0,17.6,1.8,24.5,5.4c7,3.6,12.7,8.5,17.2,14.6c4.5,6.1,7.7,13.1,9.7,20.9    c2,7.8,2.7,16,2.1,24.5h-79.6C1569,1122.7,1571.5,1129.8,1576,1134.2z M1610.3,1076.2c-3.6-4-9.1-6-16.5-6    c-4.8,0-8.9,0.8-12.1,2.5c-3.2,1.6-5.8,3.7-7.7,6.1c-1.9,2.4-3.3,5-4.1,7.7c-0.8,2.7-1.2,5.1-1.4,7.3h49.3    C1616.4,1086,1613.9,1080.2,1610.3,1076.2z"></path>			<path class="st2" d="M1691.5,1133.3c1.3,2.3,3.1,4.3,5.2,5.8c2.1,1.5,4.6,2.6,7.4,3.3c2.8,0.7,5.7,1.1,8.6,1.1    c2.1,0,4.4-0.2,6.7-0.7c2.3-0.5,4.5-1.3,6.4-2.3c1.9-1.1,3.5-2.5,4.8-4.3c1.3-1.8,1.9-4,1.9-6.7c0-4.5-3-8-9.1-10.2    c-6-2.3-14.5-4.5-25.3-6.8c-4.4-1-8.7-2.2-12.9-3.5c-4.2-1.3-7.9-3.1-11.2-5.3c-3.3-2.2-5.9-5-7.9-8.3c-2-3.3-3-7.4-3-12.3    c0-7.1,1.4-12.9,4.2-17.5c2.8-4.5,6.4-8.1,11-10.8c4.5-2.6,9.7-4.5,15.4-5.5c5.7-1.1,11.5-1.6,17.5-1.6c6,0,11.8,0.6,17.4,1.7    c5.6,1.1,10.6,3.1,15,5.8c4.4,2.7,8.1,6.3,11,10.8c2.9,4.5,4.7,10.1,5.2,17h-28.8c-0.4-5.8-2.6-9.8-6.6-11.8    c-4-2.1-8.7-3.1-14.1-3.1c-1.7,0-3.6,0.1-5.5,0.3c-2,0.2-3.8,0.7-5.4,1.4c-1.6,0.7-3,1.7-4.2,3.1c-1.1,1.4-1.7,3.2-1.7,5.4    c0,2.7,1,4.9,3,6.6c2,1.7,4.6,3.1,7.8,4.2s6.9,2,11,2.9c4.1,0.9,8.3,1.8,12.6,2.8c4.4,1,8.7,2.2,12.9,3.6    c4.2,1.4,7.9,3.3,11.2,5.7c3.3,2.3,5.9,5.3,7.9,8.7c2,3.5,3,7.8,3,12.9c0,7.3-1.5,13.3-4.4,18.2c-2.9,4.9-6.7,8.9-11.4,11.8    s-10.1,5.1-16.1,6.3c-6,1.2-12.2,1.8-18.4,1.8c-6.4,0-12.7-0.6-18.8-1.9c-6.1-1.3-11.6-3.4-16.3-6.4c-4.8-3-8.7-6.9-11.7-11.8    c-3.1-4.9-4.7-11.1-5-18.5h28.8C1689.5,1128.1,1690.2,1130.9,1691.5,1133.3z"></path>			<path class="st2" d="M1806.1,1133.3c1.3,2.3,3.1,4.3,5.2,5.8c2.1,1.5,4.6,2.6,7.4,3.3c2.8,0.7,5.7,1.1,8.6,1.1    c2.1,0,4.4-0.2,6.7-0.7c2.3-0.5,4.5-1.3,6.4-2.3c1.9-1.1,3.5-2.5,4.8-4.3c1.3-1.8,1.9-4,1.9-6.7c0-4.5-3-8-9.1-10.2    c-6-2.3-14.5-4.5-25.3-6.8c-4.4-1-8.7-2.2-12.9-3.5c-4.2-1.3-7.9-3.1-11.2-5.3c-3.3-2.2-5.9-5-7.9-8.3c-2-3.3-3-7.4-3-12.3    c0-7.1,1.4-12.9,4.2-17.5c2.8-4.5,6.4-8.1,11-10.8c4.5-2.6,9.7-4.5,15.4-5.5c5.7-1.1,11.5-1.6,17.5-1.6c6,0,11.8,0.6,17.4,1.7    c5.6,1.1,10.6,3.1,15,5.8c4.4,2.7,8.1,6.3,11,10.8c2.9,4.5,4.7,10.1,5.2,17h-28.8c-0.4-5.8-2.6-9.8-6.6-11.8    c-4-2.1-8.7-3.1-14.1-3.1c-1.7,0-3.6,0.1-5.5,0.3c-2,0.2-3.8,0.7-5.4,1.4c-1.6,0.7-3,1.7-4.2,3.1c-1.1,1.4-1.7,3.2-1.7,5.4    c0,2.7,1,4.9,3,6.6c2,1.7,4.6,3.1,7.8,4.2s6.9,2,11,2.9c4.1,0.9,8.3,1.8,12.6,2.8c4.4,1,8.7,2.2,12.9,3.6    c4.2,1.4,7.9,3.3,11.2,5.7c3.3,2.3,5.9,5.3,7.9,8.7c2,3.5,3,7.8,3,12.9c0,7.3-1.5,13.3-4.4,18.2c-2.9,4.9-6.7,8.9-11.4,11.8    s-10.1,5.1-16.1,6.3c-6,1.2-12.2,1.8-18.4,1.8c-6.4,0-12.7-0.6-18.8-1.9c-6.1-1.3-11.6-3.4-16.3-6.4c-4.8-3-8.7-6.9-11.7-11.8    c-3.1-4.9-4.7-11.1-5-18.5h28.8C1804,1128.1,1804.7,1130.9,1806.1,1133.3z"></path>		</g>	</g></g></svg>